/* XPM */
static char * sqEe_xpm[] = {
"25 25 12 1",
" 	c None",
".	c #FFFFFF",
"+	c #000000",
"@	c #454545",
"#	c #43A126",
"$	c #DC2F18",
"%	c #CB256C",
"&	c #CDCDCD",
"*	c #638CBD",
"=	c #050505",
"-	c #212B70",
";	c #D1CACA",
".........................",
".........................",
".........................",
".........................",
".....++++++++............",
".....+@@#####+...........",
"..+++++++++++++.+++++....",
".+$$+%%%%%%%%%++&&&&&+...",
".+$$+%%%%%%%%%%+&&@@&&+..",
".+$$+%%%%%%%%%%+&@+*@&+..",
".++$+%%=+===%%%+&@++@&+..",
"...++%%=%=%=%%+&&&@@&&+..",
"...-+%%=%=%=%%+&+&&&&&+..",
"...++%%=%%%+%%+&&&@@&&+=.",
".++$+%%=%%%=%%%+&@+*@&+;=",
".+$$+%%%%%%%%%%+&@++@&+;=",
".+$$+%%%%%%%%%%+&&@@&&+;=",
".+$$+%%%%%%%%%++&&&&&+;;=",
"..+++++++++++++;+++++;;;=",
".....+@@#####+=;;;;;;;;;=",
".....++++++++..=;;;;;;;;=",
"................=========",
".........................",
".........................",
"........................."};
