/* XPM */
static char * sqNe_xpm[] = {
"25 25 13 1",
" 	c None",
".	c #FFFFFF",
"+	c #000000",
"@	c #454545",
"#	c #43A126",
"$	c #DC2F18",
"%	c #5454EA",
"&	c #CDCDCD",
"*	c #638CBD",
"=	c #050505",
"-	c #212B70",
";	c #040404",
">	c #D1CACA",
".........................",
".........................",
".........................",
".........................",
".....++++++++............",
".....+@@#####+...........",
"..+++++++++++++.+++++....",
".+$$+%%%%%%%%%++&&&&&+...",
".+$$+%%%%%%%%%%+&&@@&&+..",
".+$$+%%%%%%%%%%+&@+*@&+..",
".++$+%%=+===%%%+&@++@&+..",
"...++%%%%%==%%+&&&@@&&+..",
"...-+%%%%==%%%+&+&&&&&+..",
"...++%%==%%%%%+&&&@@&&+=.",
".++$+%%+;;++%%%+&@+*@&+>=",
".+$$+%%%%%%%%%%+&@++@&+>=",
".+$$+%%%%%%%%%%+&&@@&&+>=",
".+$$+%%%%%%%%%++&&&&&+>>=",
"..+++++++++++++>+++++>>>=",
".....+@@#####+=>>>>>>>>>=",
".....++++++++..=>>>>>>>>=",
"................=========",
".........................",
".........................",
"........................."};
