/* XPM */
static char * sqNn_xpm[] = {
"25 25 13 1",
" 	c None",
".	c #FFFFFF",
"+	c #050505",
"@	c #D1CACA",
"#	c #000000",
"$	c #CDCDCD",
"%	c #454545",
"&	c #638CBD",
"*	c #5454EA",
"=	c #43A126",
"-	c #040404",
";	c #DC2F18",
">	c #212B70",
"..............++++++++...",
".............+@@@@@@@+...",
"........#########@@@@+...",
".......#$$$$$$$$$#@@@+...",
"......#$$%%$$$%%$$#@@+...",
"......#$%&#%$%&#%$#@@+...",
"......#$%##%$%##%$#@@+...",
"......#$$%%$$$%%$$#@@+...",
"......#$$$$$#$$$$$#@@+...",
".......####$$$####@@+....",
"......##***###***##+.....",
".....##***********##.....",
"....#=#***********#=#....",
"....#=#***++**#***#=#....",
"....#=#***+++*#***#=#....",
"....#=#***+*+*-***#=#....",
"....#=#***#**+-***#=#....",
"....#%#***+**+#***#%#....",
"....#%#***********#%#....",
"....###***********###....",
"......#############......",
"......#;;;;#>#;;;;#......",
"......#;;;#...#;;;#......",
".......####...####.......",
"........................."};
