/* XPM */
static char * sqWn_xpm[] = {
"25 25 12 1",
" 	c None",
".	c #FFFFFF",
"+	c #050505",
"@	c #D1CACA",
"#	c #000000",
"$	c #CDCDCD",
"%	c #454545",
"&	c #638CBD",
"*	c #F9950F",
"=	c #43A126",
"-	c #DC2F18",
";	c #212B70",
"..............++++++++...",
".............+@@@@@@@+...",
"........#########@@@@+...",
".......#$$$$$$$$$#@@@+...",
"......#$$%%$$$%%$$#@@+...",
"......#$%&#%$%&#%$#@@+...",
"......#$%##%$%##%$#@@+...",
"......#$$%%$$$%%$$#@@+...",
"......#$$$$$#$$$$$#@@+...",
".......####$$$####@@+....",
"......##***###***##+.....",
".....##***********##.....",
"....#=#***********#=#....",
"....#=#***+***#***#=#....",
"....#=#***+***#***#=#....",
"....#=#***+*+*+***#=#....",
"....#=#***++*++***#=#....",
"....#%#***+***#***#%#....",
"....#%#***********#%#....",
"....###***********###....",
"......#############......",
"......#----#;#----#......",
"......#---#...#---#......",
".......####...####.......",
"........................."};
