/* XPM */
static char * sqWs_xpm[] = {
"25 25 12 1",
" 	c None",
".	c #FFFFFF",
"+	c #000000",
"@	c #DC2F18",
"#	c #212B70",
"$	c #F9950F",
"%	c #454545",
"&	c #050505",
"*	c #43A126",
"=	c #D1CACA",
"-	c #CDCDCD",
";	c #638CBD",
".........................",
".......++++...++++.......",
"......+@@@+...+@@@+......",
"......+@@@@+#+@@@@+......",
"......+++++++++++++......",
"....+++$$$$$$$$$$$+++....",
"....+%+$$$$$$$$$$$+%+....",
"....+%+$$$+$$$&$$$+%+....",
"....+*+$$$&&$&&$$$+*+....",
"....+*+$$$&$&$&$$$+*+....",
"....+*+$$$+$$$&$$$+*+....",
"....+*+$$$+$$$&$$$+*+....",
"....+*+$$$$$$$$$$$+*+....",
".....++$$$$$$$$$$$++.....",
".....&++$$$+++$$$++......",
"....&==++++---++++.......",
"...&==+-----+-----+......",
"...&==+--%%---%%--+......",
"...&==+-%++%-%++%-+......",
"...&==+-%+;%-%+;%-+......",
"...&==+--%%---%%--+......",
"...&===+---------+.......",
"...&====+++++++++........",
"...&=======&.............",
"...&&&&&&&&.............."};
