/* XPM */
static char * sqWw_xpm[] = {
"25 25 12 1",
" 	c None",
".	c #FFFFFF",
"+	c #050505",
"@	c #D1CACA",
"#	c #000000",
"$	c #43A126",
"%	c #454545",
"&	c #CDCDCD",
"*	c #F9950F",
"=	c #DC2F18",
"-	c #638CBD",
";	c #212B70",
".........................",
".........................",
".........................",
"+++++++++................",
"+@@@@@@@@+..########.....",
"+@@@@@@@@@+#$$$$$%%#.....",
"+@@@#####@#############..",
"+@@#&&&&&##*********#==#.",
"+@#&&%%&&#**********#==#.",
"+@#&%##%&#**********#==#.",
"+@#&%-#%&#***##++#**#=##.",
".+#&&%%&&&#*****+***##...",
"..#&&&&&#&#****+****#;...",
"..#&&%%&&&#*****+***##...",
"..#&%##%&#***+++++**#=##.",
"..#&%-#%&#**********#==#.",
"..#&&%%&&#**********#==#.",
"...#&&&&&##*********#==#.",
"....#####.#############..",
"...........#$$$$$%%#.....",
"............########.....",
".........................",
".........................",
".........................",
"........................."};
