/* XPM */
static char * sqXe_xpm[] = {
"25 25 15 1",
" 	c None",
".	c #FFFFFF",
"+	c #000000",
"@	c #454545",
"#	c #D1CACA",
"$	c #CDCDCD",
"%	c #2B2B2B",
"&	c #050505",
"*	c #030303",
"=	c #D1D1D1",
"-	c #171717",
";	c #191919",
">	c #D0D0D0",
",	c #CFCFCF",
"'	c #2F2F2F",
".........................",
".........................",
".........................",
".........................",
".....++++++++............",
".....+@@#####+...........",
"..+++++++++++++.+++++....",
".+##+#########++$$$$$+...",
".+##+##########+$%##&$+..",
".+##+##########+$#*&#$+..",
".++#+##########+=#&+#$+..",
"...++#########+$$-##;$+..",
"...#+#########+$+$>>$$+..",
"...++#########+$$&##&$+&.",
".++#+##########+$#+&#$+#&",
".+##+##########+,#++#$+#&",
".+##+##########+,'##&$+#&",
".+##+#########++$$$$$+##&",
"..+++++++++++++#+++++###&",
".....+@@#####+&#########&",
".....++++++++..&########&",
"................&&&&&&&&&",
".........................",
".........................",
"........................."};
