/* XPM */
static char * sqXn_xpm[] = {
"25 25 15 1",
" 	c None",
".	c #FFFFFF",
"+	c #050505",
"@	c #D1CACA",
"#	c #000000",
"$	c #CDCDCD",
"%	c #191919",
"&	c #D0D0D0",
"*	c #030303",
"=	c #2B2B2B",
"-	c #171717",
";	c #2F2F2F",
">	c #D1D1D1",
",	c #CFCFCF",
"'	c #454545",
"..............++++++++...",
".............+@@@@@@@+...",
"........#########@@@@+...",
".......#$$$$$$$$$#@@@+...",
"......#$+@@%$+@@+$#@@+...",
"......#$@+#@&@+#@$#@@+...",
"......#$@*+@&@##@$#@@+...",
"......#$=@@-$+@@;$#@@+...",
"......#$$$>$#$$,,$#@@+...",
".......####$$$####@@+....",
"......##@@@###@@@##+.....",
".....##@@@@@@@@@@@##.....",
"....#@#@@@@@@@@@@@#@#....",
"....#@#@@@@@@@@@@@#@#....",
"....#@#@@@@@@@@@@@#@#....",
"....#@#@@@@@@@@@@@#@#....",
"....#@#@@@@@@@@@@@#@#....",
"....#'#@@@@@@@@@@@#'#....",
"....#'#@@@@@@@@@@@#'#....",
"....###@@@@@@@@@@@###....",
"......#############......",
"......#@@@@#@#@@@@#......",
"......#@@@#...#@@@#......",
".......####...####.......",
"........................."};
