/* XPM */
static char * sqXs_xpm[] = {
"25 25 15 1",
" 	c None",
".	c #FFFFFF",
"+	c #000000",
"@	c #D1CACA",
"#	c #454545",
"$	c #050505",
"%	c #CDCDCD",
"&	c #CFCFCF",
"*	c #D1D1D1",
"=	c #2F2F2F",
"-	c #171717",
";	c #2B2B2B",
">	c #D0D0D0",
",	c #030303",
"'	c #191919",
".........................",
".......++++...++++.......",
"......+@@@+...+@@@+......",
"......+@@@@+@+@@@@+......",
"......+++++++++++++......",
"....+++@@@@@@@@@@@+++....",
"....+#+@@@@@@@@@@@+#+....",
"....+#+@@@@@@@@@@@+#+....",
"....+@+@@@@@@@@@@@+@+....",
"....+@+@@@@@@@@@@@+@+....",
"....+@+@@@@@@@@@@@+@+....",
"....+@+@@@@@@@@@@@+@+....",
"....+@+@@@@@@@@@@@+@+....",
".....++@@@@@@@@@@@++.....",
".....$++@@@+++@@@++......",
"....$@@++++%%%++++.......",
"...$@@+%&&%%+%*%%%+......",
"...$@@+%=@@$%-@@;%+......",
"...$@@+%@++@>@$,@%+......",
"...$@@+%@+$@>@+$@%+......",
"...$@@+%$@@$%'@@$%+......",
"...$@@@+%%%%%%%%%+.......",
"...$@@@@+++++++++........",
"...$@@@@@@@$.............",
"...$$$$$$$$.............."};
