/* XPM */
static char * sqXw_xpm[] = {
"25 25 15 1",
" 	c None",
".	c #FFFFFF",
"+	c #050505",
"@	c #D1CACA",
"#	c #000000",
"$	c #454545",
"%	c #CDCDCD",
"&	c #2F2F2F",
"*	c #CFCFCF",
"=	c #D0D0D0",
"-	c #191919",
";	c #171717",
">	c #D1D1D1",
",	c #030303",
"'	c #2B2B2B",
".........................",
".........................",
".........................",
"+++++++++................",
"+@@@@@@@@+..########.....",
"+@@@@@@@@@+#@@@@@$$#.....",
"+@@@#####@#############..",
"+@@#%%%%%##@@@@@@@@@#@@#.",
"+@#%+@@&*#@@@@@@@@@@#@@#.",
"+@#%@##@*#@@@@@@@@@@#@@#.",
"+@#%@+#@%#@@@@@@@@@@#@##.",
".+#%+@@+%%#@@@@@@@@@##...",
"..#%%==%#%#@@@@@@@@@#@...",
"..#%-@@;%%#@@@@@@@@@##...",
"..#%@#+@>#@@@@@@@@@@#@##.",
"..#%@+,@%#@@@@@@@@@@#@@#.",
"..#%+@@'%#@@@@@@@@@@#@@#.",
"...#%%%%%##@@@@@@@@@#@@#.",
"....#####.#############..",
"...........#@@@@@$$#.....",
"............########.....",
".........................",
".........................",
".........................",
"........................."};
